<?xml version="1.0" standalone="no"?>
<!DOCTYPE svg PUBLIC "-//W3C//DTD SVG 20010904//EN"
 "http://www.w3.org/TR/2001/REC-SVG-20010904/DTD/svg10.dtd">
<svg version="1.0" xmlns="http://www.w3.org/2000/svg"
 width="260.000000pt" height="260.000000pt" viewBox="0 0 260.000000 260.000000"
 preserveAspectRatio="xMidYMid meet">
<metadata>
Created by potrace 1.14, written by Peter Selinger 2001-2017
</metadata>
<g transform="translate(0.000000,260.000000) scale(0.100000,-0.100000)"
fill="#000000" stroke="none">
<path d="M545 2255 c-5 -2 -37 -11 -70 -21 -168 -49 -289 -166 -344 -331 -19
-56 -21 -86 -21 -301 0 -269 9 -317 76 -419 l34 -52 -20 -77 c-36 -139 -21
-184 63 -184 24 0 46 3 50 6 3 3 41 22 84 41 l78 34 385 -1 c381 0 385 0 355
18 -51 31 -69 69 -71 147 -2 39 -3 77 -3 86 -1 14 -17 17 -100 21 -89 3 -102
6 -134 31 -73 55 -73 159 0 214 33 25 45 28 135 31 65 3 98 8 99 15 0 7 1 44
2 82 3 115 48 165 161 179 27 3 46 2 42 -1 -3 -3 11 -14 33 -23 50 -23 81 -84
80 -160 -1 -30 -1 -62 0 -71 1 -14 17 -17 94 -22 101 -5 130 -15 167 -60 19
-24 24 -42 24 -83 0 -47 -4 -58 -32 -87 -41 -42 -77 -53 -174 -52 -43 0 -78
-2 -79 -5 0 -3 -1 -42 -3 -88 -2 -88 -14 -115 -70 -156 -26 -20 -43 -21 -277
-24 l-249 -3 0 -44 c0 -141 132 -320 288 -390 105 -48 175 -55 524 -55 178 1
343 5 366 9 46 9 51 7 167 -65 50 -31 100 -54 117 -54 23 1 61 27 73 50 10 20
10 35 -5 89 -32 120 -33 136 -7 167 38 47 64 95 86 161 19 56 21 86 21 302 0
209 -2 247 -20 302 -32 106 -103 204 -185 257 -127 83 -199 102 -396 102
l-146 0 -5 64 c-12 147 -128 302 -279 370 -115 53 -145 56 -539 55 -201 0
-369 -2 -375 -4z"/>
</g>
</svg>
