<svg width="77" height="73" viewBox="0 0 77 73" fill="none" xmlns="http://www.w3.org/2000/svg">
<path d="M27.3406 35.4185L18.8461 43.0756L18.8461 47.3636L34.6123 47.3636L34.6123 42.8866L25.7123 42.8866L30.7606 38.4097C31.2511 37.96 31.7285 37.5038 32.1927 37.0412C32.657 36.5785 33.0625 36.0832 33.4221 35.5554C33.7818 35.021 34.063 34.4475 34.2657 33.8219C34.4684 33.1963 34.573 32.499 34.573 31.717C34.573 30.5896 34.3507 29.6121 33.9126 28.7715C33.4744 27.9308 32.8794 27.2401 32.1404 26.6861C31.4015 26.1322 30.5579 25.7282 29.6163 25.461C28.6746 25.1938 27.7003 25.0635 26.6932 25.0635C25.6273 25.0635 24.6137 25.2199 23.659 25.5392C22.7043 25.8585 21.8541 26.3212 21.1152 26.9273C20.3763 27.5333 19.7681 28.2697 19.2842 29.1364C18.8003 29.9966 18.4995 30.9806 18.3752 32.0885L23.332 32.7662C23.4367 31.7822 23.7571 30.9937 24.2998 30.3876C24.8426 29.7816 25.5488 29.4818 26.4055 29.4818C27.2621 29.4818 27.8834 29.7229 28.3738 30.2051C28.8643 30.6874 29.1127 31.313 29.1127 32.0885C29.1127 32.7401 28.9493 33.3332 28.6223 33.8675C28.2953 34.4019 27.8637 34.9232 27.3275 35.4315L27.3406 35.4185Z" fill="#0FA49E"/>
<path d="M52.4645 25.6369L46.2783 25.6369L37.4111 38.8006L37.4111 43.1277L47.6647 43.1277L47.6647 47.3636L52.4972 47.3636L52.4972 43.1277L55.4857 43.1277L55.4857 38.957L52.4645 38.957L52.4645 25.6434L52.4645 25.6369ZM47.6908 38.9505L42.4267 38.9505L47.5993 30.9089L47.6908 30.9089L47.6908 38.9505Z" fill="#0FA49E"/>
<path d="M72.7232 30.4137C69.8067 13.177 54.7402 0.00024522 36.6264 0.000244863C16.4331 0.000244465 -0.000122204 16.3767 -0.000122367 36.5002C-0.000122531 56.6238 16.4331 73.0002 36.6264 73.0002C38.8693 73.0002 41.06 72.7852 43.1918 72.4007L43.1918 66.4249C41.0731 66.8876 38.8824 67.1352 36.6264 67.1352C19.6766 67.1352 5.88523 53.3915 5.88523 36.5002C5.88523 19.609 19.6766 5.86527 36.6264 5.86527C51.4836 5.86527 63.9082 16.4288 66.7528 30.4137L63.0974 30.4137L70.0486 42.4174L76.9999 30.4137L72.7232 30.4137Z" fill="#0FA49E"/>
</svg>
