<svg width="78" height="74" viewBox="0 0 78 74" fill="none" xmlns="http://www.w3.org/2000/svg">
<path d="M20.3592 73.0004L18.4019 71.7331C7.87217 64.9139 1.78044 55.3009 0.291561 43.158C-0.693058 35.1142 0.819718 27.4081 4.79165 20.2489C9.46142 11.8366 16.9393 5.44536 25.851 2.25212C34.801 -0.955395 44.6353 -0.729514 53.5423 2.89172C66.5526 8.17971 74.573 17.9948 77.381 32.0637C77.5818 33.0671 77.7013 34.0538 77.8184 35.0096C77.8686 35.4233 77.9187 35.8394 77.9761 36.2532L78 36.4315L78 41.2249L77.9594 41.4556C77.9426 41.5435 77.9259 41.6339 77.9092 41.7219C77.8853 41.8479 77.859 41.9739 77.8423 42.0999C77.7849 42.5136 77.7371 42.9274 77.6869 43.3434C77.577 44.2541 77.4647 45.1957 77.2783 46.1563C75.6986 54.2119 71.8676 61.1738 65.8906 66.8517C64.71 67.974 63.4482 68.9726 62.2294 69.938C61.6964 70.3588 61.1444 70.7963 60.6186 71.2291L58.5131 72.96L56.8546 70.8011C56.7948 70.7226 56.747 70.6632 56.7088 70.6156C56.6156 70.4967 56.5081 70.3612 56.3957 70.1876C55.0144 68.012 52.9782 66.3833 50.1654 65.2064C49.2047 64.8045 48.1699 64.4907 47.0729 64.1554C46.4539 63.9676 45.8159 63.7726 45.1754 63.5586C44.1334 63.2091 43.0317 62.239 42.9146 60.8647C42.8644 60.2703 42.8716 59.7139 42.8763 59.1741C42.8763 58.9982 42.8811 58.8199 42.8811 58.6368L42.8811 56.0213L53.6307 56.0213C53.5685 55.7241 53.504 55.4269 53.4419 55.1297C52.9591 52.859 52.4596 50.5098 51.9936 48.1892C51.2193 44.3445 50.6577 41.3985 50.1749 38.6356C49.4508 34.5032 47.9022 31.5192 45.3044 29.2485C42.4916 26.7899 38.62 26.3976 35.4415 28.2546C32.8485 29.7692 31.08 32.0423 30.0404 35.2022C29.6891 36.2698 29.4836 37.4491 29.2685 38.6974C29.1562 39.3489 29.0391 40.0218 28.8957 40.6995C28.2648 43.712 27.6315 46.7222 26.9958 49.7347C26.5728 51.7415 26.1498 53.7482 25.7292 55.755C25.7076 55.8549 25.6861 55.9547 25.667 56.057L36.4309 56.057L36.4309 58.9316C36.4309 59.0672 36.4309 59.1789 36.4309 59.293C36.4405 60.3796 36.45 61.4044 35.7211 62.3698C34.9779 63.3541 33.9837 63.6109 32.9346 63.8796L32.8414 63.9034C29.1156 64.864 26.4246 66.2834 24.3693 68.3711C23.681 69.0701 22.3212 70.6679 21.8552 71.2243L20.3592 73.0099L20.3592 73.0004ZM38.8184 5.23137C35.0281 5.23137 31.2449 5.8781 27.6315 7.17157C19.9218 9.93445 13.4453 15.4769 9.39451 22.7788C5.96746 28.9536 4.66021 35.5969 5.511 42.5255C6.72982 52.4619 11.2705 60.1775 19.3745 66.0504C19.8119 65.5559 20.2612 65.0589 20.6125 64.6999C21.9245 63.3684 23.4349 62.2295 25.1699 61.276L19.2311 61.276L20.1034 57.0057C20.2659 56.2044 20.4213 55.4388 20.5814 54.6732C21.002 52.6664 21.425 50.6572 21.848 48.6505C22.4813 45.6403 23.1147 42.6325 23.7456 39.6224C23.8698 39.0327 23.9726 38.4335 24.0825 37.7963C24.3215 36.4172 24.5701 34.9906 25.0409 33.5616C26.4796 29.1985 29.0821 25.8912 32.7768 23.7322C37.9437 20.7149 44.2218 21.3331 48.7697 25.3086C52.2709 28.3687 54.4217 32.4298 55.3514 37.7273C55.8269 40.445 56.3814 43.3506 57.1461 47.1501C57.6074 49.4446 58.1045 51.7795 58.5825 54.0383C58.8214 55.1654 59.0604 56.2924 59.297 57.4194C59.3472 57.6643 59.3711 57.8783 59.3926 58.0685C59.3998 58.1375 59.4093 58.2159 59.4189 58.3063L59.7845 61.2427L54.0346 61.2427C56.1663 62.3698 57.9659 63.7845 59.4117 65.4679C60.4202 64.6666 61.3738 63.8939 62.2509 63.0617C67.4249 58.147 70.742 52.1195 72.109 45.1505C72.2596 44.3801 72.3552 43.5741 72.4579 42.7229C72.5105 42.2759 72.5655 41.8312 72.6252 41.3842C72.6587 41.1465 72.6993 40.9325 72.7352 40.7446L72.7352 36.7834C72.685 36.403 72.6372 36.0201 72.5894 35.6373C72.4794 34.7386 72.3767 33.8897 72.2142 33.0789C69.7717 20.8409 62.8173 12.3121 51.5443 7.73033C47.4457 6.06356 43.1225 5.22899 38.8112 5.22899L38.8184 5.23137Z" fill="#A0D2D2"/>
</svg>
