<svg width="74" height="73" viewBox="0 0 74 73" fill="none" xmlns="http://www.w3.org/2000/svg">
<path d="M36.5212 73C36.4248 73 36.3284 73 36.2319 73C16.1821 72.8447 -0.075223 56.4105 -0.000230169 36.3714C0.0372662 26.6117 3.87796 17.4465 10.8201 10.5632C17.7355 3.70142 26.9007 -0.0428548 36.6123 -1.6932e-06C56.721 0.101774 73.0426 16.4555 73.0051 36.4625C72.9837 46.2919 69.1269 55.516 62.1419 62.4367C55.2586 69.2557 46.1685 73 36.5265 73L36.5212 73ZM36.4301 4.82096C28.0684 4.82095 20.1835 8.07242 14.2162 13.9861C8.19004 19.9588 4.85822 27.9133 4.82608 36.3875C4.7618 53.7804 18.8711 68.0451 36.2748 68.179C44.7382 68.2433 52.7142 64.9865 58.7512 59.0139C64.8202 53.0037 68.1681 44.9956 68.1895 36.4571C68.2217 19.1017 54.0534 4.91202 36.5962 4.82631C36.5426 4.82631 36.4891 4.82631 36.4355 4.82631L36.4301 4.82096Z" fill="#0FA49E"/>
<path d="M29.7076 56.1267C24.2867 50.7111 18.8015 45.226 13.3699 39.7997C16.1607 37.0411 18.9837 34.2503 21.8387 31.4273C24.351 33.9556 27.0079 36.6232 29.7183 39.3498C36.9551 32.1022 44.1276 24.9137 51.2198 17.8108C54.1499 20.7355 56.9246 23.5156 59.6297 26.2153C49.7253 36.1197 39.7406 46.0991 29.7076 56.1267Z" fill="#0FA49E"/>
</svg>
