<svg viewBox="61.745 -26.376 469.533 546.245" width="469.533" height="546.245" fill="none" xmlns="http://www.w3.org/2000/svg">
  <path fill-rule="evenodd" clip-rule="evenodd" d="M 285.753 5.789 C 274.178 8.861 267.786 12.282 259.923 19.613 C 254.565 24.608 253.235 25.363 249.793 25.363 C 244.243 25.363 231.71 28.726 225.356 31.919 C 204.971 42.164 192.456 63.641 192.545 88.225 C 192.606 104.976 196.621 121.315 204.432 136.588 L 208.308 144.166 L 204.898 147.471 C 199.786 152.426 197.399 158.224 196.785 167.176 C 195.735 182.507 201.586 193.983 213.01 199 C 215.21 199.966 217.112 200.808 217.238 200.87 C 217.363 200.933 218.618 204.963 220.027 209.824 C 225.104 227.345 232.569 240.484 243.737 251.553 L 250.485 258.242 L 248.983 267.053 C 247.17 277.681 243.652 288.221 241.547 289.331 C 240.702 289.777 229.885 293.148 217.51 296.822 C 194.916 303.53 191.51 305.163 191.51 309.288 C 191.51 310.717 189.777 311.174 180.76 312.124 C 141.969 316.209 111.886 341.426 100.34 379.537 C 98.204 386.584 98.106 388.698 97.754 435.052 C 97.393 482.626 97.415 483.268 99.449 485.302 L 101.51 487.363 L 298.51 487.363 L 495.51 487.363 L 497.571 485.302 C 499.605 483.268 499.627 482.626 499.266 435.052 C 498.914 388.698 498.816 386.584 496.68 379.537 C 484.882 340.595 452.807 314.507 413.26 311.687 C 405.107 311.106 404.51 310.914 404.51 308.868 C 404.51 307.661 403.722 305.971 402.76 305.113 C 401.345 303.851 387.949 299.519 355.313 289.769 C 353.302 289.168 349.988 280.766 347.961 271.128 C 345.497 259.416 345.607 259.03 353.93 250.318 C 365.106 238.621 374.162 221.411 377.616 205.306 C 378.515 201.114 378.984 200.537 382.312 199.534 C 387.633 197.93 393.174 192.946 396.233 187.012 C 398.422 182.766 398.962 180.171 399.311 172.218 C 399.581 166.059 399.28 161.179 398.478 158.718 C 396.571 152.868 391.74 146.44 387.861 144.591 C 385.537 143.482 384.558 142.427 384.899 141.399 C 385.18 140.554 386.969 135.358 388.876 129.853 C 399.758 98.426 398.475 67.52 385.387 45.767 C 371.199 22.187 338.914 4.881 307.01 3.756 C 296.588 3.388 293.793 3.655 285.753 5.789 Z M 322.033 19.432 C 353.531 27.682 373.672 44.685 380.049 68.408 C 383.52 81.318 382.871 99.66 378.343 116.657 L 376.267 124.451 L 372.351 116.404 C 367.753 106.954 358.981 97.025 351.754 93.093 C 343.78 88.753 336.629 87.343 326.093 88.035 C 304.422 89.459 283.065 82.92 265.008 69.333 C 260.609 66.023 256.046 63.064 254.868 62.757 C 251.812 61.963 247.512 64.495 240.034 71.49 C 226.515 84.136 218.413 99.452 215.15 118.53 L 213.896 125.863 L 211.7 119.349 C 206.644 104.351 205.064 85.387 207.963 74.494 C 213.476 53.78 227.683 41.94 250.51 39.036 L 261.01 37.699 L 267.161 31.653 C 277.258 21.728 288.27 17.541 304.572 17.429 C 311.21 17.383 316.549 17.996 322.033 19.432 Z M 258.74 82.375 C 275.708 95.29 304.053 103.529 326.183 101.977 C 334.133 101.419 336.125 101.621 341.124 103.491 C 348.358 106.198 355.22 112.864 359.501 121.344 C 362.952 128.181 366.51 140.742 366.51 146.089 C 366.51 149.61 367.991 153.317 369.91 154.598 C 370.515 155.002 372.727 155.339 374.826 155.348 C 382.638 155.379 385.51 159.415 385.51 170.363 C 385.51 181.179 382.552 185.478 373.462 187.876 C 370.575 188.637 367.809 189.664 367.315 190.158 C 366.821 190.652 365.585 195.063 364.569 199.96 C 356.766 237.553 332.392 259.272 297.92 259.346 C 280.235 259.384 265.211 253.242 252.922 240.952 C 241.442 229.47 234.269 215.356 231.427 198.655 C 230.176 191.298 228.384 188.375 225.105 188.341 C 223.953 188.329 221.082 187.444 218.726 186.375 C 213.305 183.914 210.564 178.464 210.532 170.081 C 210.493 159.875 213.831 155.363 221.42 155.363 C 226.804 155.363 227.839 152.735 227.623 139.615 C 227.308 120.473 231.221 105.583 240.065 92.28 C 243.708 86.8 251.653 78.363 253.17 78.363 C 253.335 78.363 255.841 80.168 258.74 82.375 Z M 276.638 270.351 C 291.893 274.618 309.257 274.051 324.758 268.778 C 333.437 265.827 333.506 265.825 333.525 268.613 C 333.551 272.412 337.412 286.469 339.955 292.023 L 342.362 297.282 L 339.001 319.424 C 337.152 331.603 335.357 341.849 335.013 342.193 C 332.38 344.827 263.734 344.921 261.108 342.295 C 260.82 342.006 259.063 331.891 257.204 319.816 C 254.068 299.44 253.934 297.612 255.335 294.363 C 257.904 288.404 261.403 277.136 262.552 271.123 L 263.648 265.383 L 266.457 266.836 C 268.002 267.635 272.584 269.217 276.638 270.351 Z M 242.283 312.613 C 243.638 322.435 246.043 338.464 255.441 400.286 C 259.322 425.819 262.387 446.816 262.254 446.947 C 261.911 447.281 215.073 371.393 214.723 369.936 C 214.566 369.28 217.153 365.666 220.473 361.905 C 223.793 358.144 226.51 354.257 226.51 353.268 C 226.51 352.278 222.379 343.126 217.329 332.93 C 212.28 322.733 208.343 314.251 208.579 314.081 C 209.186 313.644 238.779 304.626 240.078 304.481 C 240.679 304.415 241.643 307.969 242.283 312.613 Z M 372.757 309.486 C 380.868 311.893 387.505 314.205 387.507 314.624 C 387.509 315.042 383.427 323.541 378.436 333.511 C 372.196 345.976 369.533 352.32 369.911 353.823 C 370.212 355.025 373.127 359.03 376.387 362.723 L 382.314 369.438 L 358.206 408.361 C 344.946 429.768 334.01 447.189 333.903 447.073 C 333.671 446.82 354.275 309.854 355.045 306.542 C 355.341 305.265 356.13 304.421 356.797 304.665 C 357.464 304.909 364.646 307.078 372.757 309.486 Z M 204.279 337.873 C 207.706 344.754 210.51 350.872 210.51 351.47 C 210.51 352.067 207.773 355.543 204.428 359.194 C 199.301 364.789 198.406 366.305 198.727 368.847 C 198.947 370.587 212.308 393.178 230.309 422.246 C 247.47 449.957 261.51 472.794 261.51 472.996 C 261.51 473.198 227.76 473.363 186.51 473.363 L 111.51 473.363 L 111.51 433.023 C 111.51 395.804 111.667 392.071 113.533 384.773 C 118.715 364.508 131.364 347.325 148.605 337.125 C 152.061 335.081 155.034 333.553 155.211 333.731 C 155.389 333.909 154.556 336.261 153.361 338.958 C 149.709 347.201 147.524 357.32 146.848 369.113 C 146.494 375.301 145.849 380.363 145.414 380.363 C 144.98 380.363 141.898 382.887 138.566 385.971 C 134.373 389.853 131.527 393.624 129.321 398.221 C 123.274 410.817 124.549 428.189 132.428 440.584 C 136.147 446.435 138.525 447.115 145.569 444.345 C 152.618 441.573 154.51 439.778 154.51 435.863 C 154.51 431.228 151.593 428.954 146.518 429.635 C 141.802 430.268 141.313 429.679 139.591 421.306 C 137.272 410.031 142.387 398.635 152.466 392.619 C 165.527 384.824 182.345 390.877 189.074 405.796 C 192.261 412.862 192.578 416.72 190.01 417.198 C 186.703 417.813 184.51 420.47 184.51 423.863 C 184.51 428.14 187.112 430.262 193.615 431.29 C 199.261 432.183 202.274 431.557 204.345 429.062 C 205.948 427.131 206.034 413.043 204.48 407.197 C 199.88 389.903 184.453 376.664 167.621 375.565 L 160.233 375.082 L 160.852 366.973 C 162.049 351.278 166.754 339.243 175.067 330.613 L 180.123 325.363 L 189.085 325.363 L 198.047 325.363 L 204.279 337.873 Z M 416.628 329.613 C 423.078 338.369 428.717 355.536 430.079 370.564 L 430.742 377.877 L 427.06 379.209 C 418.939 382.145 412.262 391.216 410.952 401.089 C 408.922 416.39 422.304 431.363 438.01 431.363 C 453.782 431.363 467.007 416.503 465.066 400.964 C 463.874 391.423 457.216 382.645 448.367 378.948 L 444.833 377.471 L 443.628 367.53 C 442.34 356.907 439.165 344.155 435.681 335.613 C 434.285 332.191 433.943 330.363 434.7 330.363 C 437.569 330.363 451.074 338.095 457.216 343.253 C 470.346 354.28 479.453 368.658 483.516 384.773 C 485.344 392.026 485.51 396.033 485.51 433.023 L 485.51 473.363 L 409.928 473.363 L 334.347 473.363 L 336.635 469.613 C 337.893 467.551 352.105 444.52 368.216 418.433 C 387.466 387.266 397.51 370.088 397.51 368.332 C 397.51 366.488 395.651 363.554 391.51 358.863 C 388.21 355.125 385.51 351.688 385.51 351.225 C 385.51 350.762 388.314 344.754 391.741 337.873 L 397.973 325.363 L 405.735 325.363 L 413.497 325.363 L 416.628 329.613 Z M 332.958 359.863 C 332.702 360.963 328.896 385.938 324.5 415.363 C 320.105 444.788 316.275 469.875 315.99 471.113 C 315.477 473.341 315.299 473.363 297.991 473.363 C 288.376 473.363 280.498 473.25 280.483 473.113 C 280.468 472.976 276.527 446.988 271.725 415.363 L 262.993 357.863 L 298.208 357.863 C 332.911 357.863 333.416 357.892 332.958 359.863 Z M 445.164 392.872 C 446.507 393.752 448.482 395.91 449.554 397.667 C 454.764 406.211 448.229 417.356 438.01 417.356 C 427.432 417.356 421.02 405.882 426.78 397.261 C 431.149 390.72 439.014 388.843 445.164 392.872 Z" fill="#0FA49E"/>
</svg>
