<svg width="304" height="228" viewBox="0 0 304 228" fill="none" xmlns="http://www.w3.org/2000/svg">
<path d="M238.163 103.313C238.163 113.103 234.471 122.036 228.428 128.805L231.673 142.643C232.96 148.107 226.936 152.321 222.237 149.263L208.791 140.517C205.938 141.188 202.954 141.561 199.896 141.561L157.75 141.561C147.176 141.561 137.628 137.272 130.69 130.353C123.772 123.434 119.482 113.868 119.482 103.294L151.913 103.294C158.011 103.294 162.934 98.3706 162.934 92.2725L162.934 81.9038L173.303 81.9038C179.401 81.9038 184.324 76.9805 184.324 70.8824C184.324 67.8426 183.093 65.0826 181.098 63.0872C179.102 61.0918 176.342 59.861 173.303 59.861L162.934 59.861L162.934 49.2685C162.934 46.2287 161.703 43.4687 159.708 41.4733C157.712 39.4779 154.971 38.2471 151.913 38.2471L199.896 38.2471C221.043 38.2471 238.163 55.3666 238.163 76.4956L238.163 103.294L238.163 103.313Z" fill="#E81F41"/>
<path d="M184.343 38.2486L151.931 38.2486C145.852 38.2486 140.91 43.1905 140.91 49.2886L140.91 59.6573L130.522 59.6573C127.483 59.6573 124.723 60.9068 122.727 62.8835C120.732 64.879 119.501 67.639 119.501 70.6787C119.501 76.7768 124.443 81.7001 130.522 81.7001L140.91 81.7001L140.91 92.2926C140.91 98.3907 145.852 103.314 151.931 103.314L103.948 103.314C100.535 103.314 97.2345 102.866 94.1015 102.027L80.0404 108.536C75.3595 111.575 69.336 107.361 70.6041 101.915L73.7371 88.5442C68.702 82.0731 65.6809 73.9236 65.6809 65.0654L65.6809 38.2672C65.6622 17.1195 82.8004 3.37627e-07 103.929 7.54328e-07L146.076 1.58552e-06C156.649 1.79406e-06 166.216 4.28921 173.135 11.2079C180.054 18.1266 184.343 27.6747 184.343 38.2486Z" fill="white"/>
<path d="M0 187.402L15.2174 187.402C16.5228 187.402 17.9028 187.552 19.3574 187.85C20.812 188.148 22.2666 188.633 23.7025 189.267C25.1385 189.92 26.5185 190.778 27.8426 191.822C29.1666 192.866 30.3228 194.135 31.3485 195.608C32.3742 197.081 33.1575 198.778 33.7542 200.699C34.351 202.62 34.6493 204.802 34.6493 207.226C34.6493 209.65 34.351 211.814 33.7542 213.753C33.1575 215.692 32.3556 217.371 31.3485 218.844C30.3415 220.317 29.1666 221.567 27.8426 222.611C26.5185 223.655 25.1385 224.513 23.7025 225.166C22.2666 225.819 20.8306 226.304 19.3574 226.583C17.9028 226.882 16.5228 227.031 15.2174 227.031L-3.2248e-07 227.031L-1.51788e-10 187.421L0 187.402ZM4.69948 222.648L13.6509 222.648C15.926 222.648 18.0333 222.35 19.9728 221.753C21.9123 221.157 23.5907 220.243 25.008 218.993C26.4253 217.744 27.5442 216.14 28.3647 214.201C29.1853 212.261 29.5955 209.93 29.5955 207.207C29.5955 204.485 29.1853 202.153 28.3647 200.214C27.5442 198.275 26.4253 196.689 25.008 195.44C23.5907 194.19 21.9123 193.258 19.9728 192.661C18.0333 192.065 15.926 191.766 13.6509 191.766L4.69948 191.766L4.69948 222.648Z" fill="white"/>
<path d="M39.8896 213.919C39.8896 211.868 40.2439 210.003 40.9526 208.324C41.6612 206.646 42.631 205.191 43.8618 203.979C45.0926 202.767 46.5658 201.816 48.2815 201.145C49.9972 200.473 51.8621 200.138 53.8761 200.138C55.8902 200.138 57.7551 200.473 59.4708 201.145C61.1864 201.816 62.6597 202.767 63.8905 203.979C65.1213 205.191 66.0911 206.627 66.7997 208.324C67.5084 210.003 67.8627 211.868 67.8627 213.919C67.8627 215.97 67.5084 217.835 66.7997 219.514C66.0911 221.192 65.1213 222.628 63.8905 223.84C62.6597 225.052 61.1864 226.003 59.4708 226.675C57.7551 227.346 55.8902 227.682 53.8761 227.682C51.8621 227.682 49.9972 227.346 48.2815 226.675C46.5658 226.003 45.0926 225.052 43.8618 223.84C42.631 222.628 41.6612 221.192 40.9526 219.514C40.2439 217.835 39.8896 215.97 39.8896 213.919ZM44.5891 213.919C44.5891 215.299 44.7942 216.567 45.2231 217.742C45.652 218.917 46.2675 219.943 47.088 220.819C47.9085 221.696 48.8783 222.386 50.0345 222.889C51.1721 223.393 52.4402 223.654 53.8761 223.654C55.3121 223.654 56.5616 223.411 57.6991 222.889C58.8367 222.386 59.8064 221.696 60.6456 220.819C61.4662 219.943 62.0816 218.917 62.5105 217.742C62.9394 216.567 63.1632 215.28 63.1632 213.919C63.1632 212.558 62.9394 211.252 62.5105 210.077C62.0816 208.903 61.4475 207.877 60.6456 207C59.8251 206.124 58.8367 205.434 57.6991 204.93C56.5616 204.427 55.2934 204.166 53.8761 204.166C52.4588 204.166 51.1721 204.408 50.0345 204.93C48.8969 205.434 47.9085 206.124 47.088 207C46.2675 207.877 45.652 208.903 45.2231 210.077C44.7942 211.252 44.5891 212.539 44.5891 213.919Z" fill="white"/>
<path d="M93.2623 207.373C92.3298 206.254 91.3228 205.434 90.2412 204.949C89.1596 204.445 87.966 204.184 86.6606 204.184C85.206 204.184 83.9193 204.427 82.8003 204.949C81.6814 205.452 80.749 206.142 80.0403 207.038C79.313 207.933 78.7536 208.977 78.3806 210.152C78.0076 211.327 77.8211 212.576 77.8211 213.938C77.8211 215.299 78.0263 216.53 78.4552 217.705C78.8841 218.879 79.4809 219.924 80.2455 220.819C81.0101 221.714 81.9238 222.423 83.0241 222.908C84.1058 223.411 85.3179 223.672 86.6606 223.672C89.5325 223.672 91.7517 222.591 93.3182 220.427L96.5631 223.504C95.295 224.959 93.8031 226.022 92.0874 226.693C90.3717 227.365 88.5628 227.7 86.6606 227.7C84.6466 227.7 82.8003 227.365 81.122 226.693C79.4436 226.022 78.0076 225.071 76.8327 223.84C75.6579 222.609 74.7441 221.155 74.0914 219.476C73.4387 217.798 73.1216 215.952 73.1216 213.938C73.1216 211.924 73.4387 210.133 74.0914 208.455C74.7441 206.776 75.6579 205.322 76.8514 204.091C78.0449 202.86 79.4622 201.909 81.122 201.219C82.7817 200.529 84.6279 200.175 86.642 200.175C88.656 200.175 90.409 200.51 92.1434 201.182C93.8777 201.853 95.4069 202.898 96.7123 204.315L93.2436 207.392L93.2623 207.373Z" fill="white"/>
<path d="M115.92 204.522L108.2 204.522L108.2 217.613C108.2 218.471 108.2 219.254 108.256 220C108.293 220.728 108.442 221.362 108.703 221.902C108.964 222.443 109.356 222.872 109.878 223.189C110.4 223.506 111.146 223.655 112.116 223.655C112.75 223.655 113.403 223.581 114.074 223.432C114.746 223.282 115.38 223.059 115.976 222.76L116.144 226.733C115.398 227.068 114.578 227.311 113.664 227.46C112.75 227.609 111.874 227.684 111.072 227.684C109.505 227.684 108.256 227.478 107.323 227.068C106.391 226.658 105.664 226.08 105.141 225.334C104.619 224.588 104.265 223.674 104.097 222.574C103.929 221.474 103.855 220.243 103.855 218.919L103.855 204.541L98.1482 204.541L98.1482 200.848L103.855 200.848L103.855 193.407L108.219 193.407L108.219 200.848L115.939 200.848L115.939 204.541L115.92 204.522Z" fill="white"/>
<path d="M119.781 213.919C119.781 211.868 120.135 210.003 120.844 208.324C121.552 206.646 122.522 205.191 123.753 203.979C124.984 202.767 126.457 201.816 128.173 201.145C129.888 200.473 131.753 200.138 133.767 200.138C135.781 200.138 137.646 200.473 139.362 201.145C141.078 201.816 142.551 202.767 143.782 203.979C145.013 205.191 145.982 206.627 146.691 208.324C147.4 210.003 147.754 211.868 147.754 213.919C147.754 215.97 147.4 217.835 146.691 219.514C145.982 221.192 145.013 222.628 143.782 223.84C142.551 225.052 141.078 226.003 139.362 226.675C137.646 227.346 135.781 227.682 133.767 227.682C131.753 227.682 129.888 227.346 128.173 226.675C126.457 226.003 124.984 225.052 123.753 223.84C122.522 222.628 121.552 221.192 120.844 219.514C120.135 217.835 119.781 215.97 119.781 213.919ZM124.48 213.919C124.48 215.299 124.704 216.567 125.133 217.742C125.562 218.917 126.177 219.943 126.998 220.819C127.818 221.696 128.788 222.386 129.944 222.889C131.082 223.393 132.35 223.654 133.767 223.654C135.185 223.654 136.453 223.411 137.59 222.889C138.728 222.386 139.698 221.696 140.537 220.819C141.357 219.943 141.973 218.917 142.402 217.742C142.831 216.567 143.036 215.28 143.036 213.919C143.036 212.558 142.812 211.252 142.402 210.077C141.973 208.903 141.339 207.877 140.537 207C139.716 206.124 138.747 205.434 137.59 204.93C136.453 204.427 135.185 204.166 133.767 204.166C132.35 204.166 131.063 204.408 129.944 204.93C128.807 205.434 127.818 206.124 126.998 207C126.177 207.877 125.543 208.903 125.133 210.077C124.704 211.252 124.48 212.539 124.48 213.919Z" fill="white"/>
<path d="M154.523 207.038C154.523 205.844 154.486 204.725 154.412 203.681C154.337 202.637 154.3 201.686 154.3 200.828L158.44 200.828C158.44 201.536 158.44 202.245 158.496 202.954C158.533 203.662 158.552 204.39 158.552 205.136L158.663 205.136C158.962 204.501 159.372 203.886 159.913 203.289C160.454 202.693 161.088 202.17 161.852 201.686C162.598 201.219 163.438 200.846 164.37 200.567C165.302 200.287 166.309 200.138 167.391 200.138C167.689 200.138 167.988 200.156 168.286 200.194C168.585 200.231 168.883 200.306 169.181 200.417L168.902 204.837C168.156 204.613 167.372 204.502 166.552 204.502C163.866 204.502 161.908 205.359 160.715 207.094C159.503 208.828 158.887 211.215 158.887 214.236L158.887 226.992L154.523 226.992L154.523 207.019L154.523 207.038Z" fill="white"/>
<path d="M218.302 195.571C217.109 193.967 215.635 192.774 213.882 191.972C212.129 191.17 210.302 190.76 208.4 190.76C206.199 190.76 204.185 191.207 202.339 192.102C200.493 192.997 198.907 194.191 197.546 195.701C196.203 197.212 195.159 198.965 194.413 200.96C193.667 202.956 193.294 205.044 193.294 207.189C193.294 209.501 193.667 211.665 194.413 213.641C195.159 215.637 196.203 217.371 197.527 218.844C198.851 220.318 200.437 221.493 202.283 222.35C204.129 223.208 206.162 223.637 208.418 223.637C210.843 223.637 213.006 223.171 214.908 222.201C216.81 221.25 218.47 219.889 219.887 218.099L223.412 221.064C221.622 223.451 219.458 225.204 216.959 226.323C214.442 227.442 211.589 228.001 208.418 228.001C205.584 228.001 202.936 227.479 200.474 226.435C198.012 225.39 195.868 223.954 194.059 222.089C192.25 220.224 190.833 218.043 189.807 215.506C188.781 212.97 188.259 210.191 188.259 207.17C188.259 204.149 188.744 201.538 189.732 199.002C190.721 196.466 192.119 194.265 193.91 192.401C195.7 190.536 197.826 189.062 200.287 187.981C202.749 186.899 205.453 186.358 208.4 186.358C211.085 186.358 213.677 186.843 216.157 187.813C218.638 188.783 220.708 190.368 222.386 192.568L218.302 195.534L218.302 195.571Z" fill="white"/>
<path d="M229.156 184.717L233.519 184.717L233.519 204.466L233.631 204.466C233.93 203.944 234.34 203.44 234.862 202.918C235.384 202.415 236 201.967 236.727 201.538C237.454 201.128 238.275 200.792 239.151 200.531C240.047 200.27 240.998 200.139 242.005 200.139C243.72 200.139 245.194 200.4 246.443 200.923C247.692 201.445 248.718 202.172 249.557 203.105C250.378 204.037 250.975 205.156 251.366 206.48C251.758 207.804 251.963 209.259 251.963 210.825L251.963 226.994L247.599 226.994L247.599 211.273C247.599 209.072 247.114 207.338 246.145 206.07C245.175 204.802 243.664 204.168 241.613 204.168C240.196 204.168 238.965 204.41 237.958 204.895C236.932 205.38 236.093 206.07 235.44 206.965C234.788 207.86 234.303 208.923 233.986 210.154C233.669 211.385 233.501 212.746 233.501 214.238L233.501 226.994L229.137 226.994L229.137 184.698L229.156 184.717Z" fill="white"/>
<path d="M259.926 204.186C261.269 202.806 262.873 201.799 264.719 201.147C266.565 200.494 268.43 200.158 270.332 200.158C274.211 200.158 277.008 201.072 278.724 202.9C280.44 204.727 281.298 207.506 281.298 211.236L281.298 222.481C281.298 223.227 281.335 223.991 281.409 224.812C281.484 225.614 281.577 226.341 281.689 227.012L277.493 227.012C277.344 226.416 277.269 225.763 277.251 225.017C277.232 224.29 277.213 223.656 277.213 223.096L277.102 223.096C276.244 224.439 275.087 225.539 273.67 226.397C272.234 227.255 270.5 227.684 268.486 227.684C267.143 227.684 265.894 227.516 264.719 227.18C263.544 226.845 262.518 226.36 261.642 225.707C260.765 225.054 260.057 224.252 259.553 223.283C259.031 222.313 258.77 221.194 258.77 219.926C258.77 217.763 259.329 216.066 260.448 214.835C261.567 213.604 262.966 212.69 264.626 212.093C266.285 211.497 268.076 211.124 269.996 210.974C271.917 210.825 273.67 210.751 275.274 210.751L276.952 210.751L276.952 209.967C276.952 208.065 276.374 206.629 275.237 205.66C274.099 204.69 272.495 204.205 270.444 204.205C269.027 204.205 267.647 204.429 266.285 204.914C264.924 205.38 263.712 206.107 262.667 207.077L259.926 204.224L259.926 204.186ZM272.57 214.424C269.773 214.424 267.553 214.816 265.912 215.599C264.271 216.383 263.451 217.669 263.451 219.46C263.451 221.101 263.991 222.257 265.11 222.966C266.211 223.656 267.572 223.991 269.213 223.991C270.481 223.991 271.6 223.786 272.551 223.357C273.502 222.928 274.286 222.35 274.938 221.642C275.572 220.933 276.057 220.094 276.393 219.161C276.729 218.21 276.915 217.203 276.952 216.122L276.952 214.443L272.589 214.443L272.57 214.424Z" fill="white"/>
<path d="M303.62 204.522L295.899 204.522L295.899 217.613C295.899 218.471 295.899 219.254 295.955 220C295.993 220.728 296.142 221.362 296.403 221.902C296.664 222.443 297.056 222.872 297.578 223.189C298.1 223.506 298.846 223.655 299.816 223.655C300.45 223.655 301.102 223.581 301.774 223.432C302.445 223.282 303.079 223.059 303.676 222.76L303.844 226.733C303.098 227.068 302.277 227.311 301.364 227.46C300.45 227.609 299.573 227.684 298.771 227.684C297.205 227.684 295.955 227.478 295.023 227.068C294.09 226.658 293.363 226.08 292.841 225.334C292.319 224.588 291.965 223.674 291.797 222.574C291.629 221.474 291.554 220.243 291.554 218.919L291.554 204.541L285.848 204.541L285.848 200.848L291.554 200.848L291.554 193.407L295.918 193.407L295.918 200.848L303.639 200.848L303.639 204.541L303.62 204.522Z" fill="white"/>
</svg>
