<svg width="48" height="39" viewBox="0 0 48 39" fill="none" xmlns="http://www.w3.org/2000/svg">
<path d="M23.9195 0.63252C27.5737 0.754293 31.2374 0.461457 34.8821 0.780387C41.3277 1.34576 46.5236 6.08042 46.9359 12.0299C47.1675 15.3845 47.2975 18.7825 46.8027 22.1342C45.978 27.7126 40.3507 32.2819 34.1811 32.4211C31.0439 32.4907 19.0377 32.4501 15.8974 32.4356L7.61515 38.043V30.8642C3.07912 28.4374 0.693735 24.8016 0.658843 19.9945C0.636639 17.0052 0.382874 14.0015 0.83965 11.0209C1.6517 5.7296 6.80628 1.26748 12.646 0.786186C16.3986 0.475954 20.1606 0.757192 23.9195 0.63252Z" fill="#0FA49E"/>
<path d="M15.8588 19.2675C17.4281 19.2675 18.7002 18.0925 18.7002 16.643C18.7002 15.1936 17.4281 14.0186 15.8588 14.0186C14.2895 14.0186 13.0173 15.1936 13.0173 16.643C13.0173 18.0925 14.2895 19.2675 15.8588 19.2675Z" fill="white"/>
<path d="M24.9981 19.2675C26.5674 19.2675 27.8396 18.0925 27.8396 16.643C27.8396 15.1936 26.5674 14.0186 24.9981 14.0186C23.4288 14.0186 22.1566 15.1936 22.1566 16.643C22.1566 18.0925 23.4288 19.2675 24.9981 19.2675Z" fill="white"/>
<path d="M34.2699 19.2675C35.8392 19.2675 37.1114 18.0925 37.1114 16.643C37.1114 15.1936 35.8392 14.0186 34.2699 14.0186C32.7006 14.0186 31.4285 15.1936 31.4285 16.643C31.4285 18.0925 32.7006 19.2675 34.2699 19.2675Z" fill="white"/>
</svg>
