<svg width="351" height="112" viewBox="0 0 351 112" fill="none" xmlns="http://www.w3.org/2000/svg">
<path d="M311.463 97.8824L341.447 68.0085L341.355 67.917C335.474 73.7211 327.384 77.3059 318.452 77.3059C309.52 77.3059 301.14 73.5905 295.234 67.6011C289.329 73.5894 281.108 77.3059 272.016 77.3059C262.924 77.3059 254.994 73.7201 249.113 67.917L249.021 68.0085L279.005 97.8824C287.968 106.812 302.5 106.812 311.463 97.8824Z" fill="#E81F41"/>
<path d="M351 44.8763C351 26.9657 336.427 12.4465 318.451 12.4465C309.406 12.4465 301.224 16.1229 295.325 22.0567L341.354 67.9171C347.31 62.0398 351 53.8876 351 44.8763Z" fill="#1C1F62"/>
<path d="M295.233 67.6021C301.138 73.5904 309.359 77.3069 318.451 77.3069C327.543 77.3069 335.473 73.7211 341.354 67.918L295.325 22.0576C295.294 22.0885 295.264 22.1204 295.233 22.1512C301.004 28.0028 304.565 36.0253 304.565 44.8772C304.565 53.729 301.004 61.7506 295.233 67.6021Z" fill="#92D4D2"/>
<path d="M272.015 12.4465C254.039 12.4465 239.466 26.9657 239.466 44.8763C239.466 53.8876 243.156 62.0398 249.112 67.9171L295.141 22.0567C289.242 16.1229 281.06 12.4465 272.015 12.4465Z" fill="#1C1F62"/>
<path d="M295.233 67.6021C289.462 61.7506 285.901 53.728 285.901 44.8772C285.901 36.0263 289.462 28.0038 295.233 22.1512C295.202 22.1204 295.172 22.0885 295.141 22.0576L249.112 67.918C254.993 73.7221 263.083 77.3069 272.015 77.3069C280.947 77.3069 289.328 73.5915 295.233 67.6021Z" fill="#92D4D2"/>
<path d="M295.233 67.6023C301.004 61.7508 304.565 53.7283 304.565 44.8774C304.565 36.0266 301.004 28.004 295.233 22.1515C289.462 28.003 285.901 36.0255 285.901 44.8774C285.901 53.7293 289.462 61.7508 295.233 67.6023Z" fill="white"/>
<path d="M72.339 97.8824L102.323 68.0085L102.231 67.917C96.3498 73.7211 88.2594 77.3059 79.3274 77.3059C70.3954 77.3059 62.0159 73.5905 56.1097 67.6011C50.2046 73.5894 41.9841 77.3059 32.8921 77.3059C23.8 77.3059 15.8697 73.7201 9.98834 67.917L9.89642 68.0085L39.8805 97.8824C48.8435 106.812 63.376 106.812 72.339 97.8824Z" fill="#E81F41"/>
<path d="M111.876 44.8763C111.876 26.9657 97.303 12.4465 79.3264 12.4465C70.2818 12.4465 62.0995 16.1229 56.2006 22.0567L102.23 67.9171C108.186 62.0398 111.876 53.8876 111.876 44.8763Z" fill="#1C1F62"/>
<path d="M56.1087 67.6021C62.0138 73.5904 70.2343 77.3069 79.3264 77.3069C88.4185 77.3069 96.3487 73.7211 102.23 67.918L56.2006 22.0576C56.1696 22.0885 56.1397 22.1204 56.1087 22.1512C61.8796 28.0028 65.4404 36.0253 65.4404 44.8772C65.4404 53.729 61.8796 61.7506 56.1087 67.6021Z" fill="#92D4D2"/>
<path d="M32.8911 12.4465C14.9145 12.4465 0.341705 26.9657 0.341705 44.8763C0.341705 53.8876 4.03163 62.0398 9.98734 67.9171L56.0168 22.0567C50.1179 16.1229 41.9357 12.4465 32.8911 12.4465Z" fill="#1C1F62"/>
<path d="M56.1087 67.6021C50.3378 61.7506 46.777 53.728 46.777 44.8772C46.777 36.0263 50.3378 28.0038 56.1087 22.1512C56.0777 22.1204 56.0478 22.0885 56.0168 22.0576L9.98729 67.918C15.8686 73.7221 23.959 77.3069 32.891 77.3069C41.823 77.3069 50.2036 73.5915 56.1087 67.6021Z" fill="#92D4D2"/>
<path d="M56.1087 67.6023C61.8796 61.7508 65.4404 53.7283 65.4404 44.8774C65.4404 36.0266 61.8796 28.004 56.1087 22.1515C50.3379 28.003 46.777 36.0255 46.777 44.8774C46.777 53.7293 50.3379 61.7508 56.1087 67.6023Z" fill="white"/>
<path d="M311.463 97.6617L341.447 67.7878L341.355 67.6963C335.474 73.5004 327.384 77.0852 318.452 77.0852C309.52 77.0852 301.14 73.3698 295.234 67.3804C289.329 73.3687 281.108 77.0852 272.016 77.0852C262.924 77.0852 254.994 73.4994 249.113 67.6963L249.021 67.7878L279.005 97.6617C287.968 106.592 302.5 106.592 311.463 97.6617Z" fill="#E81F41"/>
<path d="M351 44.6557C351 26.7452 336.427 12.226 318.451 12.226C309.406 12.226 301.224 15.9023 295.325 21.8361L341.354 67.6965C347.31 61.8192 351 53.6671 351 44.6557Z" fill="#1C1F62"/>
<path d="M295.233 67.3815C301.138 73.3699 309.359 77.0863 318.451 77.0863C327.543 77.0864 335.473 73.5005 341.354 67.6974L295.325 21.837C295.294 21.8679 295.264 21.8998 295.233 21.9307C301.004 27.7822 304.565 35.8047 304.565 44.6566C304.565 53.5085 301.004 61.53 295.233 67.3815Z" fill="#92D4D2"/>
<path d="M272.015 12.226C254.039 12.226 239.466 26.7452 239.466 44.6557C239.466 53.667 243.156 61.8192 249.112 67.6965L295.141 21.8361C289.242 15.9023 281.06 12.226 272.015 12.226Z" fill="#1C1F62"/>
<path d="M295.233 67.3815C289.462 61.53 285.901 53.5074 285.901 44.6566C285.901 35.8058 289.462 27.7832 295.233 21.9307C295.202 21.8998 295.172 21.8679 295.141 21.837L249.112 67.6974C254.993 73.5016 263.083 77.0863 272.015 77.0863C280.947 77.0864 289.328 73.3709 295.233 67.3815Z" fill="#92D4D2"/>
<path d="M295.233 67.3814C301.004 61.5299 304.565 53.5073 304.565 44.6565C304.565 35.8056 301.004 27.7831 295.233 21.9305C289.462 27.7821 285.901 35.8046 285.901 44.6565C285.901 53.5083 289.462 61.5299 295.233 67.3814Z" fill="white"/>
<path d="M72.339 97.6617L102.323 67.7878L102.231 67.6963C96.3498 73.5004 88.2594 77.0852 79.3274 77.0852C70.3954 77.0852 62.0159 73.3698 56.1097 67.3804C50.2046 73.3687 41.9841 77.0852 32.8921 77.0852C23.8 77.0852 15.8697 73.4994 9.98834 67.6963L9.89642 67.7878L39.8805 97.6617C48.8435 106.592 63.376 106.592 72.339 97.6617Z" fill="#E81F41"/>
<path d="M111.876 44.6557C111.876 26.7452 97.303 12.226 79.3264 12.226C70.2818 12.226 62.0995 15.9023 56.2006 21.8361L102.23 67.6965C108.186 61.8192 111.876 53.6671 111.876 44.6557Z" fill="#1C1F62"/>
<path d="M56.1087 67.3815C62.0138 73.3699 70.2343 77.0863 79.3264 77.0863C88.4185 77.0864 96.3488 73.5005 102.23 67.6974L56.2006 21.837C56.1696 21.8679 56.1397 21.8998 56.1087 21.9307C61.8796 27.7822 65.4404 35.8047 65.4404 44.6566C65.4404 53.5085 61.8796 61.53 56.1087 67.3815Z" fill="#92D4D2"/>
<path d="M32.8911 12.226C14.9145 12.226 0.341705 26.7452 0.341705 44.6557C0.341705 53.667 4.03163 61.8192 9.98734 67.6965L56.0168 21.8361C50.1179 15.9023 41.9357 12.226 32.8911 12.226Z" fill="#1C1F62"/>
<path d="M56.1087 67.3815C50.3379 61.53 46.777 53.5074 46.777 44.6566C46.777 35.8058 50.3379 27.7832 56.1087 21.9307C56.0777 21.8998 56.0478 21.8679 56.0168 21.837L9.9873 67.6974C15.8687 73.5016 23.959 77.0863 32.891 77.0863C41.8231 77.0864 50.2036 73.3709 56.1087 67.3815Z" fill="#92D4D2"/>
<path d="M56.1087 67.3814C61.8796 61.5299 65.4404 53.5073 65.4404 44.6565C65.4404 35.8056 61.8796 27.7831 56.1087 21.9305C50.3379 27.7821 46.777 35.8046 46.777 44.6565C46.777 53.5083 50.3379 61.5299 56.1087 67.3814Z" fill="white"/>
<path d="M155.592 20.7869C155.592 29.3146 162.531 36.228 171.09 36.228L195.537 36.228L195.537 20.7869C195.537 9.79791 186.595 0.888428 175.564 0.888428C164.534 0.888428 155.591 9.79791 155.591 20.7869L155.592 20.7869Z" fill="#92D4D2"/>
<path d="M155.592 91.4679C155.592 102.458 164.535 111.366 175.565 111.366C186.596 111.366 195.538 102.457 195.538 91.4679C195.538 82.9401 188.599 76.0267 180.04 76.0267L155.593 76.0267L155.593 91.4679L155.592 91.4679Z" fill="#92D4D2"/>
<path d="M140.094 36.2289C129.064 36.2289 120.121 45.1373 120.121 56.1273C120.121 67.1173 129.064 76.0268 140.093 76.0268C148.652 76.0268 155.591 69.1134 155.591 60.5857L155.591 36.2289L140.094 36.2289Z" fill="#1C1F62"/>
<path d="M231.007 56.1273C231.007 45.1373 222.065 36.2289 211.034 36.2289C202.475 36.2289 195.536 43.1422 195.536 51.67L195.536 76.0268L211.034 76.0268C222.065 76.0268 231.007 67.1173 231.007 56.1283L231.007 56.1273Z" fill="#1C1F62"/>
<path d="M155.592 36.2289L155.592 76.0268L195.537 76.0268C195.537 54.0468 177.653 36.2289 155.592 36.2289Z" fill="#E81F41"/>
</svg>
