<svg width="1728" height="267" viewBox="0 0 1728 267" fill="none" xmlns="http://www.w3.org/2000/svg">
<path d="M1138.81 266.53L1141.93 266.53L1141.93 264.149C1140.76 264.77 1139.71 265.577 1138.81 266.53Z" fill="#1C1F62"/>
<path d="M184.269 233.317L256.395 161.456L256.174 161.236C242.026 175.197 222.565 183.821 201.08 183.821C179.594 183.821 159.437 174.883 145.23 160.476C131.025 174.881 111.251 183.821 89.3802 183.821C67.5094 183.821 48.4333 175.195 34.2858 161.236L34.0647 161.456L106.191 233.317C127.751 254.798 162.709 254.798 184.269 233.317Z" fill="#E81F41"/>
<path d="M279.374 105.812C279.374 62.7285 244.319 27.8029 201.077 27.8029C179.32 27.8029 159.638 36.6463 145.448 50.92L256.171 161.236C270.498 147.098 279.374 127.489 279.374 105.812Z" fill="#1C1F62"/>
<path d="M145.227 160.478C159.432 174.883 179.206 183.823 201.077 183.823C222.948 183.823 242.024 175.198 256.172 161.238L145.449 50.9221C145.374 50.9964 145.302 51.0731 145.227 51.1473C159.109 65.223 167.675 84.5211 167.675 105.814C167.675 127.107 159.109 146.403 145.227 160.478Z" fill="#92D4D2"/>
<path d="M89.3778 27.8029C46.1354 27.8029 11.0809 62.7285 11.0809 105.812C11.0809 127.489 19.957 147.098 34.2833 161.236L145.006 50.92C130.817 36.6463 111.134 27.8029 89.3778 27.8029Z" fill="#1C1F62"/>
<path d="M145.227 160.478C131.346 146.403 122.78 127.105 122.78 105.814C122.78 84.5236 131.346 65.2255 145.227 51.1473C145.153 51.0731 145.081 50.9964 145.006 50.9221L34.2833 161.238C48.4308 175.2 67.892 183.823 89.3778 183.823C110.864 183.823 131.023 174.886 145.227 160.478Z" fill="#92D4D2"/>
<path d="M145.227 160.479C159.109 146.403 167.675 127.105 167.675 105.815C167.675 84.5241 159.109 65.226 145.227 51.1478C131.346 65.2235 122.78 84.5216 122.78 105.815C122.78 127.108 131.346 146.403 145.227 160.479Z" fill="white"/>
<path d="M1334.69 233.317L1406.81 161.456L1406.59 161.236C1392.44 175.197 1372.98 183.821 1351.5 183.821C1330.01 183.821 1309.85 174.883 1295.65 160.476C1281.44 174.881 1261.67 183.821 1239.8 183.821C1217.93 183.821 1198.85 175.195 1184.7 161.236L1184.48 161.456L1256.61 233.317C1278.17 254.798 1313.13 254.798 1334.69 233.317Z" fill="#E81F41"/>
<path d="M1429.79 105.812C1429.79 62.7285 1394.74 27.8029 1351.49 27.8029C1329.74 27.8029 1310.06 36.6463 1295.87 50.92L1406.59 161.236C1420.91 147.098 1429.79 127.489 1429.79 105.812Z" fill="#1C1F62"/>
<path d="M1295.64 160.478C1309.85 174.883 1329.62 183.823 1351.49 183.823C1373.37 183.823 1392.44 175.198 1406.59 161.238L1295.87 50.9221C1295.79 50.9964 1295.72 51.0731 1295.64 51.1473C1309.53 65.223 1318.09 84.5211 1318.09 105.814C1318.09 127.107 1309.53 146.403 1295.64 160.478Z" fill="#92D4D2"/>
<path d="M1239.79 27.8029C1196.55 27.8029 1161.5 62.7285 1161.5 105.812C1161.5 127.489 1170.37 147.098 1184.7 161.236L1295.42 50.92C1281.23 36.6463 1261.55 27.8029 1239.79 27.8029Z" fill="#1C1F62"/>
<path d="M1295.64 160.478C1281.76 146.403 1273.2 127.105 1273.2 105.814C1273.2 84.5236 1281.76 65.2255 1295.64 51.1473C1295.57 51.0731 1295.5 50.9964 1295.42 50.9221L1184.7 161.238C1198.85 175.2 1218.31 183.823 1239.79 183.823C1261.28 183.823 1281.44 174.886 1295.64 160.478Z" fill="#92D4D2"/>
<path d="M1295.64 160.479C1309.53 146.403 1318.09 127.105 1318.09 105.815C1318.09 84.5241 1309.53 65.226 1295.64 51.1478C1281.76 65.2235 1273.2 84.5216 1273.2 105.815C1273.2 127.108 1281.76 146.403 1295.64 160.479Z" fill="white"/>
<path d="M759.478 233.317L831.604 161.456L831.383 161.236C817.235 175.197 797.774 183.821 776.288 183.821C754.802 183.821 734.646 174.883 720.438 160.476C706.234 174.881 686.46 183.821 664.589 183.821C642.718 183.821 623.642 175.195 609.494 161.236L609.273 161.456L681.399 233.317C702.96 254.798 737.917 254.798 759.478 233.317Z" fill="#E81F41"/>
<path d="M854.582 105.812C854.582 62.7285 819.528 27.8029 776.286 27.8029C754.529 27.8029 734.847 36.6463 720.657 50.92L831.38 161.236C845.706 147.098 854.582 127.489 854.582 105.812Z" fill="#1C1F62"/>
<path d="M720.436 160.478C734.641 174.883 754.415 183.823 776.286 183.823C798.156 183.823 817.233 175.198 831.38 161.238L720.657 50.9221C720.583 50.9964 720.51 51.0731 720.436 51.1473C734.318 65.223 742.883 84.5211 742.883 105.814C742.883 127.107 734.318 146.403 720.436 160.478Z" fill="#92D4D2"/>
<path d="M664.586 27.8029C621.344 27.8029 586.29 62.7285 586.29 105.812C586.29 127.489 595.166 147.098 609.492 161.236L720.215 50.92C706.025 36.6463 686.343 27.8029 664.586 27.8029Z" fill="#1C1F62"/>
<path d="M720.436 160.478C706.554 146.403 697.989 127.105 697.989 105.814C697.989 84.5236 706.554 65.2255 720.436 51.1473C720.361 51.0731 720.289 50.9964 720.215 50.9221L609.492 161.238C623.639 175.2 643.101 183.823 664.586 183.823C686.072 183.823 706.231 174.886 720.436 160.478Z" fill="#92D4D2"/>
<path d="M720.436 160.479C734.318 146.403 742.883 127.105 742.883 105.815C742.883 84.5241 734.318 65.226 720.436 51.1478C706.554 65.2235 697.989 84.5216 697.989 105.815C697.989 127.108 706.554 146.403 720.436 160.479Z" fill="white"/>
<path d="M184.269 232.786L256.395 160.925L256.174 160.705C242.027 174.667 222.565 183.29 201.08 183.29C179.594 183.29 159.437 174.352 145.23 159.945C131.025 174.35 111.251 183.29 89.3803 183.29C67.5094 183.29 48.4333 174.664 34.2859 160.705L34.0648 160.925L106.191 232.786C127.751 254.267 162.709 254.267 184.269 232.786Z" fill="#E81F41"/>
<path d="M279.374 105.281C279.374 62.1979 244.319 27.2722 201.077 27.2722C179.321 27.2722 159.638 36.1156 145.449 50.3893L256.172 160.705C270.498 146.568 279.374 126.958 279.374 105.281Z" fill="#1C1F62"/>
<path d="M145.227 159.948C159.432 174.353 179.206 183.293 201.077 183.293C222.948 183.293 242.024 174.667 256.172 160.708L145.449 50.3915C145.374 50.4657 145.302 50.5425 145.227 50.6167C159.109 64.6924 167.675 83.9905 167.675 105.283C167.675 126.576 159.109 145.872 145.227 159.948Z" fill="#92D4D2"/>
<path d="M89.3778 27.2722C46.1355 27.2722 11.081 62.1978 11.081 105.281C11.081 126.958 19.957 146.568 34.2834 160.705L145.006 50.3893C130.817 36.1156 111.134 27.2722 89.3778 27.2722Z" fill="#1C1F62"/>
<path d="M145.227 159.948C131.346 145.872 122.78 126.574 122.78 105.283C122.78 83.993 131.346 64.6949 145.227 50.6167C145.153 50.5425 145.081 50.4657 145.006 50.3915L34.2834 160.708C48.4309 174.669 67.8921 183.293 89.3778 183.293C110.864 183.293 131.023 174.355 145.227 159.948Z" fill="#92D4D2"/>
<path d="M145.227 159.947C159.109 145.872 167.675 126.574 167.675 105.283C167.675 83.9926 159.109 64.6945 145.227 50.6163C131.346 64.692 122.78 83.9901 122.78 105.283C122.78 126.576 131.346 145.872 145.227 159.947Z" fill="white"/>
<path d="M1334.69 232.786L1406.81 160.925L1406.59 160.705C1392.44 174.667 1372.98 183.29 1351.5 183.29C1330.01 183.29 1309.85 174.352 1295.65 159.945C1281.44 174.35 1261.67 183.29 1239.8 183.29C1217.93 183.29 1198.85 174.664 1184.7 160.705L1184.48 160.925L1256.61 232.786C1278.17 254.267 1313.13 254.267 1334.69 232.786Z" fill="#E81F41"/>
<path d="M1429.79 105.281C1429.79 62.1979 1394.74 27.2722 1351.49 27.2722C1329.74 27.2722 1310.06 36.1156 1295.87 50.3893L1406.59 160.705C1420.91 146.568 1429.79 126.958 1429.79 105.281Z" fill="#1C1F62"/>
<path d="M1295.64 159.948C1309.85 174.353 1329.62 183.293 1351.49 183.293C1373.37 183.293 1392.44 174.667 1406.59 160.708L1295.87 50.3915C1295.79 50.4657 1295.72 50.5425 1295.64 50.6167C1309.53 64.6924 1318.09 83.9905 1318.09 105.283C1318.09 126.576 1309.53 145.872 1295.64 159.948Z" fill="#92D4D2"/>
<path d="M1239.79 27.2722C1196.55 27.2722 1161.5 62.1978 1161.5 105.281C1161.5 126.958 1170.37 146.568 1184.7 160.705L1295.42 50.3893C1281.23 36.1156 1261.55 27.2722 1239.79 27.2722Z" fill="#1C1F62"/>
<path d="M1295.64 159.948C1281.76 145.872 1273.2 126.574 1273.2 105.283C1273.2 83.993 1281.76 64.6949 1295.64 50.6167C1295.57 50.5425 1295.5 50.4657 1295.42 50.3915L1184.7 160.708C1198.85 174.669 1218.31 183.293 1239.79 183.293C1261.28 183.293 1281.44 174.355 1295.64 159.948Z" fill="#92D4D2"/>
<path d="M1295.64 159.947C1309.53 145.872 1318.09 126.574 1318.09 105.283C1318.09 83.9926 1309.53 64.6945 1295.64 50.6163C1281.76 64.692 1273.2 83.9901 1273.2 105.283C1273.2 126.576 1281.76 145.872 1295.64 159.947Z" fill="white"/>
<path d="M759.478 232.786L831.604 160.925L831.383 160.705C817.235 174.667 797.774 183.29 776.288 183.29C754.802 183.29 734.646 174.352 720.438 159.945C706.234 174.35 686.46 183.29 664.589 183.29C642.718 183.29 623.642 174.664 609.494 160.705L609.273 160.925L681.399 232.786C702.96 254.267 737.917 254.267 759.478 232.786Z" fill="#E81F41"/>
<path d="M854.582 105.281C854.582 62.1979 819.528 27.2722 776.286 27.2722C754.529 27.2722 734.847 36.1156 720.657 50.3893L831.38 160.705C845.706 146.568 854.582 126.958 854.582 105.281Z" fill="#1C1F62"/>
<path d="M720.436 159.948C734.641 174.353 754.415 183.293 776.286 183.293C798.156 183.293 817.233 174.667 831.38 160.708L720.657 50.3915C720.583 50.4657 720.51 50.5425 720.436 50.6167C734.318 64.6924 742.883 83.9905 742.883 105.283C742.883 126.576 734.318 145.872 720.436 159.948Z" fill="#92D4D2"/>
<path d="M664.586 27.2722C621.344 27.2722 586.29 62.1978 586.29 105.281C586.29 126.958 595.166 146.568 609.492 160.705L720.215 50.3893C706.025 36.1156 686.343 27.2722 664.586 27.2722Z" fill="#1C1F62"/>
<path d="M720.436 159.948C706.554 145.872 697.989 126.574 697.989 105.283C697.989 83.993 706.554 64.6949 720.436 50.6167C720.361 50.5425 720.289 50.4657 720.215 50.3915L609.492 160.708C623.639 174.669 643.101 183.293 664.586 183.293C686.072 183.293 706.231 174.355 720.436 159.948Z" fill="#92D4D2"/>
<path d="M720.436 159.947C734.318 145.872 742.883 126.574 742.883 105.283C742.883 83.9926 734.318 64.6945 720.436 50.6163C706.554 64.692 697.989 83.9901 697.989 105.283C697.989 126.576 706.554 145.872 720.436 159.947Z" fill="white"/>
<path d="M959.742 47.8653C959.742 68.3786 976.433 85.0086 997.022 85.0086L1055.83 85.0086L1055.83 47.8653C1055.83 21.4316 1034.32 1.47081e-06 1007.78 9.47517e-07C981.25 4.24227e-07 959.739 21.4316 959.739 47.8653L959.742 47.8653Z" fill="#92D4D2"/>
<path d="M959.742 217.887C959.742 244.323 981.252 265.752 1007.79 265.752C1034.32 265.752 1055.83 244.321 1055.83 217.887C1055.83 197.374 1039.14 180.744 1018.55 180.744L959.744 180.744L959.744 217.887L959.742 217.887Z" fill="#92D4D2"/>
<path d="M922.461 85.0107C895.928 85.0107 874.417 106.44 874.417 132.876C874.417 159.312 895.928 180.744 922.459 180.744C943.048 180.744 959.739 164.114 959.739 143.6L959.739 85.0107L922.461 85.0107Z" fill="#1C1F62"/>
<path d="M1141.15 132.876C1141.15 106.44 1119.64 85.0107 1093.11 85.0107C1072.52 85.0107 1055.83 101.641 1055.83 122.154L1055.83 180.744L1093.11 180.744C1119.64 180.744 1141.15 159.312 1141.15 132.878L1141.15 132.876Z" fill="#1C1F62"/>
<path d="M959.742 85.0107L959.742 180.744L1055.83 180.744C1055.83 127.871 1012.81 85.0107 959.742 85.0107Z" fill="#E81F41"/>
<path d="M384.533 47.8653C384.533 68.3786 401.224 85.0086 421.813 85.0086L480.619 85.0086L480.619 47.8653C480.619 21.4316 459.109 1.47081e-06 432.575 9.47517e-07C406.041 4.24227e-07 384.531 21.4316 384.531 47.8653L384.533 47.8653Z" fill="#92D4D2"/>
<path d="M384.533 217.887C384.533 244.323 406.044 265.752 432.577 265.752C459.111 265.752 480.622 244.321 480.622 217.887C480.622 197.374 463.93 180.744 443.341 180.744L384.536 180.744L384.536 217.887L384.533 217.887Z" fill="#92D4D2"/>
<path d="M347.253 85.0107C320.719 85.0107 299.209 106.44 299.209 132.876C299.209 159.312 320.719 180.744 347.25 180.744C367.839 180.744 384.531 164.114 384.531 143.6L384.531 85.0107L347.253 85.0107Z" fill="#1C1F62"/>
<path d="M565.941 132.876C565.941 106.44 544.431 85.0107 517.897 85.0107C497.308 85.0107 480.617 101.641 480.617 122.154L480.617 180.744L517.897 180.744C544.431 180.744 565.941 159.312 565.941 132.878L565.941 132.876Z" fill="#1C1F62"/>
<path d="M384.533 85.0107L384.533 180.744L480.619 180.744C480.619 127.871 437.601 85.0107 384.533 85.0107Z" fill="#E81F41"/>
<path d="M1534.95 47.8653C1534.95 68.3786 1551.64 85.0086 1572.23 85.0086L1631.04 85.0086L1631.04 47.8653C1631.04 21.4316 1609.53 1.47081e-06 1582.99 9.47517e-07C1556.46 4.24227e-07 1534.95 21.4316 1534.95 47.8653L1534.95 47.8653Z" fill="#92D4D2"/>
<path d="M1534.95 217.887C1534.95 244.323 1556.46 265.752 1582.99 265.752C1609.53 265.752 1631.04 244.321 1631.04 217.887C1631.04 197.374 1614.35 180.744 1593.76 180.744L1534.95 180.744L1534.95 217.887L1534.95 217.887Z" fill="#92D4D2"/>
<path d="M1497.67 85.0107C1471.14 85.0107 1449.63 106.44 1449.63 132.876C1449.63 159.312 1471.14 180.744 1497.67 180.744C1518.26 180.744 1534.95 164.114 1534.95 143.6L1534.95 85.0107L1497.67 85.0107Z" fill="#1C1F62"/>
<path d="M1716.36 132.876C1716.36 106.44 1694.85 85.0107 1668.31 85.0107C1647.73 85.0107 1631.03 101.641 1631.03 122.154L1631.03 180.744L1668.31 180.744C1694.85 180.744 1716.36 159.312 1716.36 132.878L1716.36 132.876Z" fill="#1C1F62"/>
<path d="M1534.95 85.0107L1534.95 180.744L1631.04 180.744C1631.04 127.871 1588.02 85.0107 1534.95 85.0107Z" fill="#E81F41"/>
</svg>
