<svg width="1706" height="267" viewBox="0 0 1706 267" fill="none" xmlns="http://www.w3.org/2000/svg">
<path d="M1130.43 265.016L1130.43 266.029L1129.06 266.029C1129.49 265.659 1129.95 265.321 1130.43 265.016Z" stroke="white"/>
<path d="M134.23 161.184C148.508 175.474 168.635 184.319 190.08 184.319C208.075 184.319 224.66 178.308 237.925 168.192L172.916 232.962C151.551 254.248 116.909 254.248 95.5439 232.962L30.6216 168.278C43.7858 178.34 60.1162 184.319 78.3805 184.319C100.208 184.319 119.962 175.47 134.23 161.184Z" stroke="white"/>
<path d="M190.077 28.3027C233.045 28.3027 267.874 63.0062 267.874 105.812C267.874 127.171 259.201 146.51 245.172 160.531L135.157 50.9193C149.229 36.9437 168.639 28.3027 190.077 28.3027Z" stroke="white"/>
<path d="M190.077 183.323C168.522 183.323 149.018 174.585 134.93 160.476C148.696 146.342 157.175 127.066 157.175 105.814C157.175 87.8801 151.137 71.3522 140.98 58.1347L244.46 161.235C230.439 174.899 211.625 183.323 190.077 183.323Z" stroke="white"/>
<path d="M0.581542 105.812C0.581543 63.0062 35.4104 28.3027 78.3784 28.3027C99.8167 28.3027 119.227 36.9437 133.299 50.9193L23.2833 160.531C9.2547 146.51 0.581542 127.171 0.581542 105.812Z" stroke="white"/>
<path d="M111.28 105.814C111.28 127.064 119.759 146.342 133.525 160.476C119.432 174.586 99.5521 183.323 78.378 183.323C57.2103 183.323 38.0215 174.9 23.9948 161.235L127.479 58.1314C117.319 71.351 111.28 87.8802 111.28 105.814Z" stroke="white"/>
<path d="M1284.65 161.184C1298.93 175.474 1319.05 184.319 1340.5 184.319C1358.49 184.319 1375.08 178.308 1388.34 168.192L1323.33 232.962C1301.97 254.248 1267.33 254.248 1245.96 232.962L1181.04 168.278C1194.2 178.34 1210.53 184.319 1228.8 184.319C1250.63 184.319 1270.38 175.47 1284.65 161.184Z" stroke="white"/>
<path d="M1340.49 28.3027C1383.46 28.3027 1418.29 63.0062 1418.29 105.812C1418.29 127.171 1409.62 146.51 1395.59 160.531L1285.57 50.9193C1299.65 36.9437 1319.06 28.3027 1340.49 28.3027Z" stroke="white"/>
<path d="M1340.49 183.323C1318.94 183.323 1299.44 174.585 1285.35 160.476C1299.11 146.342 1307.59 127.066 1307.59 105.814C1307.59 87.8801 1301.55 71.3522 1291.4 58.1347L1394.88 161.235C1380.86 174.899 1362.04 183.323 1340.49 183.323Z" stroke="white"/>
<path d="M1151 105.812C1151 63.0062 1185.83 28.3027 1228.8 28.3027C1250.23 28.3027 1269.64 36.9437 1283.72 50.9193L1173.7 160.531C1159.67 146.51 1151 127.171 1151 105.812Z" stroke="white"/>
<path d="M1261.7 105.814C1261.7 127.064 1270.18 146.342 1283.94 160.476C1269.85 174.586 1249.97 183.323 1228.8 183.323C1207.63 183.323 1188.44 174.9 1174.41 161.235L1277.9 58.1314C1267.74 71.351 1261.7 87.8802 1261.7 105.814Z" stroke="white"/>
<path d="M709.439 161.184C723.717 175.474 743.844 184.319 765.288 184.319C783.284 184.319 799.868 178.308 813.133 168.192L748.125 232.962C726.76 254.248 692.118 254.248 670.753 232.962L605.83 168.278C618.995 178.34 635.325 184.319 653.589 184.319C675.417 184.319 695.171 175.47 709.439 161.184Z" stroke="white"/>
<path d="M765.286 28.3027C808.254 28.3027 843.083 63.0062 843.083 105.812C843.083 127.171 834.41 146.51 820.381 160.531L710.365 50.9193C724.438 36.9437 743.848 28.3027 765.286 28.3027Z" stroke="white"/>
<path d="M765.286 183.323C743.731 183.323 724.227 174.585 710.139 160.476C723.905 146.342 732.383 127.066 732.383 105.814C732.383 87.8801 726.346 71.3522 716.188 58.1347L819.669 161.235C805.648 174.899 786.834 183.323 765.286 183.323Z" stroke="white"/>
<path d="M575.79 105.812C575.79 63.0062 610.619 28.3027 653.587 28.3027C675.025 28.3027 694.435 36.9437 708.507 50.9193L598.492 160.531C584.463 146.51 575.79 127.171 575.79 105.812Z" stroke="white"/>
<path d="M686.489 105.814C686.489 127.064 694.968 146.342 708.734 160.476C694.64 174.586 674.761 183.323 653.587 183.323C632.419 183.323 613.23 174.9 599.204 161.235L702.687 58.1314C692.528 71.351 686.489 87.8802 686.489 105.814Z" stroke="white"/>
<path d="M134.23 160.655C148.508 174.944 168.635 183.79 190.08 183.79C208.075 183.79 224.66 177.779 237.925 167.663L172.917 232.432C151.551 253.719 116.909 253.719 95.5442 232.432L30.6219 167.748C43.7862 177.811 60.1165 183.79 78.3808 183.79C100.209 183.79 119.962 174.941 134.23 160.655Z" stroke="white"/>
<path d="M190.077 27.7715C233.045 27.7715 267.874 62.475 267.874 105.281C267.874 126.64 259.201 145.979 245.172 159.999L135.156 50.388C149.228 36.4124 168.639 27.7715 190.077 27.7715Z" stroke="white"/>
<path d="M190.078 182.792C168.523 182.792 149.019 174.053 134.93 159.945C148.696 145.811 157.175 126.535 157.175 105.283C157.175 87.3489 151.137 70.8209 140.98 57.6035L244.461 160.704C230.439 174.368 211.626 182.792 190.078 182.792Z" stroke="white"/>
<path d="M0.581176 105.281C0.581176 62.475 35.41 27.7715 78.378 27.7715C99.8164 27.7715 119.227 36.4124 133.299 50.388L23.283 159.999C9.25434 145.979 0.581176 126.64 0.581176 105.281Z" stroke="white"/>
<path d="M111.281 105.283C111.281 126.533 119.76 145.811 133.526 159.945C119.432 174.055 99.5524 182.792 78.3783 182.792C57.2107 182.792 38.0218 174.369 23.9951 160.704L127.479 57.6002C117.32 70.8197 111.281 87.349 111.281 105.283Z" stroke="white"/>
<path d="M1284.65 160.655C1298.93 174.944 1319.05 183.79 1340.5 183.79C1358.49 183.79 1375.08 177.779 1388.34 167.663L1323.33 232.432C1301.97 253.719 1267.33 253.719 1245.96 232.432L1181.04 167.748C1194.2 177.811 1210.53 183.79 1228.8 183.79C1250.63 183.79 1270.38 174.941 1284.65 160.655Z" stroke="white"/>
<path d="M1340.49 27.7715C1383.46 27.7715 1418.29 62.475 1418.29 105.281C1418.29 126.64 1409.62 145.979 1395.59 159.999L1285.57 50.388C1299.65 36.4124 1319.06 27.7715 1340.49 27.7715Z" stroke="white"/>
<path d="M1340.49 182.792C1318.94 182.792 1299.44 174.053 1285.35 159.945C1299.11 145.811 1307.59 126.535 1307.59 105.283C1307.59 87.3489 1301.55 70.8209 1291.4 57.6035L1394.88 160.704C1380.86 174.368 1362.04 182.792 1340.49 182.792Z" stroke="white"/>
<path d="M1151 105.281C1151 62.475 1185.83 27.7715 1228.8 27.7715C1250.23 27.7715 1269.64 36.4124 1283.72 50.388L1173.7 159.999C1159.67 145.979 1151 126.64 1151 105.281Z" stroke="white"/>
<path d="M1261.7 105.283C1261.7 126.533 1270.18 145.811 1283.94 159.945C1269.85 174.055 1249.97 182.792 1228.8 182.792C1207.63 182.792 1188.44 174.369 1174.41 160.704L1277.9 57.6002C1267.74 70.8197 1261.7 87.349 1261.7 105.283Z" stroke="white"/>
<path d="M709.439 160.655C723.716 174.944 743.843 183.79 765.288 183.79C783.283 183.79 799.868 177.779 813.133 167.663L748.125 232.432C726.76 253.719 692.117 253.719 670.752 232.432L605.83 167.748C618.994 177.811 635.325 183.79 653.589 183.79C675.417 183.79 695.17 174.941 709.439 160.655Z" stroke="white"/>
<path d="M765.286 27.7715C808.254 27.7715 843.083 62.475 843.083 105.281C843.083 126.64 834.409 145.979 820.381 159.999L710.365 50.388C724.437 36.4124 743.847 27.7715 765.286 27.7715Z" stroke="white"/>
<path d="M765.286 182.792C743.731 182.792 724.227 174.053 710.138 159.945C723.904 145.811 732.383 126.535 732.383 105.283C732.383 87.3489 726.346 70.8209 716.188 57.6035L819.669 160.704C805.648 174.368 786.834 182.792 765.286 182.792Z" stroke="white"/>
<path d="M575.79 105.283C575.79 62.4769 610.619 27.7734 653.587 27.7734C675.025 27.7734 694.435 36.4144 708.507 50.39L598.492 160.001C584.463 145.981 575.79 126.642 575.79 105.283Z" stroke="white"/>
<path d="M686.489 105.283C686.489 126.533 694.968 145.811 708.734 159.945C694.64 174.055 674.761 182.792 653.587 182.792C632.419 182.792 613.23 174.369 599.203 160.704L702.687 57.6002C692.528 70.8197 686.489 87.349 686.489 105.283Z" stroke="white"/>
<path d="M949.242 47.8653L949.242 47.3758C949.506 21.4454 970.689 0.5 996.784 0.500001C1023.04 0.500001 1044.33 21.7095 1044.33 47.8653L1044.33 84.5086L986.023 84.5086C965.708 84.5086 949.242 68.1007 949.242 47.8653Z" stroke="white"/>
<path d="M949.244 217.887L949.244 181.244L1007.55 181.244C1027.86 181.244 1044.33 197.652 1044.33 217.887C1044.33 244.043 1023.05 265.253 996.786 265.253C970.691 265.253 949.508 244.31 949.244 218.377L949.244 217.887Z" stroke="white"/>
<path d="M863.918 132.875C863.918 106.717 885.203 85.5098 911.462 85.5098L948.24 85.5098L948.24 143.6C948.24 163.835 931.774 180.243 911.46 180.243C885.203 180.243 863.918 159.033 863.918 132.875Z" stroke="white"/>
<path d="M1082.11 85.5098C1108.37 85.5098 1129.65 106.717 1129.65 132.875L1129.65 132.878C1129.65 159.033 1108.37 180.243 1082.11 180.243L1045.33 180.243L1045.33 122.153C1045.33 101.918 1061.79 85.5098 1082.11 85.5098Z" stroke="white"/>
<path d="M1657.28 85.5098C1683.54 85.5098 1704.82 106.717 1704.82 132.875L1704.82 132.878C1704.82 159.033 1683.54 180.243 1657.28 180.243L1620.5 180.243L1620.5 122.153C1620.5 101.918 1636.97 85.5098 1657.28 85.5098Z" stroke="white"/>
<path d="M1044.33 180.243L949.242 180.243L949.242 85.511C1001.64 85.7784 1044.06 128.044 1044.33 180.243Z" stroke="white"/>
<path d="M374.034 47.8653L374.034 47.3758C374.297 21.4454 395.48 0.5 421.575 0.500001C447.835 0.500001 469.12 21.7095 469.12 47.8653L469.12 84.5086L410.814 84.5086C390.499 84.5086 374.034 68.1007 374.034 47.8653Z" stroke="white"/>
<path d="M374.036 217.887L374.036 181.244L432.342 181.244C452.656 181.244 469.122 197.652 469.122 217.887C469.122 244.043 447.837 265.253 421.578 265.253C395.482 265.253 374.299 244.31 374.036 218.377L374.036 217.887Z" stroke="white"/>
<path d="M288.709 132.875C288.709 106.717 309.994 85.5098 336.253 85.5098L373.031 85.5098L373.031 143.6C373.031 163.835 356.565 180.243 336.251 180.243C309.994 180.243 288.709 159.033 288.709 132.875Z" stroke="white"/>
<path d="M506.897 85.5098C533.156 85.5098 554.441 106.717 554.441 132.875L554.441 132.878C554.441 159.033 533.156 180.243 506.897 180.243L470.117 180.243L470.117 122.153C470.117 101.918 486.583 85.5098 506.897 85.5098Z" stroke="white"/>
<path d="M469.118 180.243L374.033 180.243L374.033 85.511C426.429 85.7784 468.849 128.044 469.118 180.243Z" stroke="white"/>
<path d="M1524.45 47.8653L1524.45 47.3758C1524.71 21.4454 1545.9 0.5 1571.99 0.500001C1598.25 0.500001 1619.54 21.7095 1619.54 47.8653L1619.54 84.5086L1561.23 84.5086C1540.92 84.5086 1524.45 68.1007 1524.45 47.8653Z" stroke="white"/>
<path d="M1524.45 217.887L1524.45 181.244L1582.76 181.244C1603.07 181.244 1619.54 197.652 1619.54 217.887C1619.54 244.043 1598.25 265.253 1572 265.253C1545.9 265.253 1524.72 244.31 1524.45 218.377L1524.45 217.887Z" stroke="white"/>
<path d="M1439.13 132.875C1439.13 106.717 1460.41 85.5098 1486.67 85.5098L1523.45 85.5098L1523.45 143.6C1523.45 163.835 1506.98 180.243 1486.67 180.243C1460.41 180.243 1439.13 159.033 1439.13 132.875Z" stroke="white"/>
<path d="M1619.54 180.243L1524.45 180.243L1524.45 85.511C1576.85 85.7784 1619.27 128.044 1619.54 180.243Z" stroke="white"/>
</svg>
