<svg width="351" height="111" viewBox="0 0 351 111" fill="none" xmlns="http://www.w3.org/2000/svg">
<path d="M335.513 71.9871L310.769 96.64C302.001 105.376 287.784 105.376 279.016 96.64L254.32 72.0347C259.32 75.1304 265.209 76.9177 271.675 76.9177C280.724 76.9177 288.925 73.2906 294.892 67.4195C300.868 73.2925 309.218 76.9177 318.11 76.9177C324.496 76.9177 330.459 75.1127 335.513 71.9871Z" stroke="white"/>
<path d="M318.109 12.0586C335.811 12.0586 350.158 26.3557 350.158 43.9883C350.158 52.6823 346.67 60.5636 341.012 66.3223L295.693 21.1698C301.472 15.5334 309.383 12.0586 318.109 12.0586Z" stroke="white"/>
<path d="M318.109 75.9192C309.332 75.9192 301.381 72.4029 295.594 66.7091C301.249 60.8007 304.723 52.7999 304.723 43.9895C304.723 37.6252 302.91 31.6829 299.772 26.6467L340.3 67.0259C334.546 72.5341 326.878 75.9192 318.109 75.9192Z" stroke="white"/>
<path d="M239.624 43.9883C239.624 26.3557 253.971 12.0586 271.674 12.0586C280.4 12.0586 288.31 15.5334 294.09 21.1698L248.771 66.3223C243.112 60.5636 239.624 52.6823 239.624 43.9883Z" stroke="white"/>
<path d="M285.06 43.9895C285.06 52.7989 288.534 60.8006 294.189 66.7091C288.396 72.4029 280.295 75.9192 271.674 75.9192C263.06 75.9192 255.242 72.5341 249.483 67.0258L290.012 26.6457C286.873 31.6825 285.06 37.6252 285.06 43.9895Z" stroke="white"/>
<path d="M96.3882 71.9871L71.6444 96.64C62.8765 105.376 48.6596 105.376 39.8917 96.64L15.1956 72.0347C20.1954 75.1304 26.0845 76.9177 32.5504 76.9177C41.6002 76.9177 49.8005 73.2906 55.7681 67.4195C61.7436 73.2925 70.094 76.9177 78.9857 76.9177C85.3715 76.9177 91.3342 75.1127 96.3882 71.9871Z" stroke="white"/>
<path d="M78.9847 12.0586C96.6869 12.0586 111.034 26.3557 111.034 43.9883C111.034 52.6823 107.546 60.5636 101.887 66.3223L56.5684 21.1698C62.3482 15.5334 70.2583 12.0586 78.9847 12.0586Z" stroke="white"/>
<path d="M78.9847 75.9192C70.2079 75.9192 62.257 72.4029 56.4692 66.7091C62.1243 60.8007 65.5987 52.7999 65.5987 43.9895C65.5987 37.6252 63.7857 31.6829 60.6475 26.6467L101.176 67.0259C95.4217 72.5341 87.7539 75.9192 78.9847 75.9192Z" stroke="white"/>
<path d="M0.5 43.9883C0.5 26.3557 14.8472 12.0586 32.5494 12.0586C41.2757 12.0586 49.1859 15.5334 54.9657 21.1698L9.64665 66.3223C3.98794 60.5636 0.5 52.6823 0.5 43.9883Z" stroke="white"/>
<path d="M45.9353 43.9895C45.9353 52.7989 49.4097 60.8006 55.0647 66.7091C49.2718 72.4029 41.1705 75.9192 32.5493 75.9192C23.9355 75.9192 16.1177 72.5341 10.3585 67.0258L50.8875 26.6457C47.7487 31.6825 45.9353 37.6252 45.9353 43.9895Z" stroke="white"/>
<path d="M96.3882 71.7664L71.6444 96.4193C62.8765 105.155 48.6596 105.155 39.8917 96.4193L15.1956 71.814C20.1954 74.9097 26.0845 76.697 32.5504 76.697C41.6002 76.697 49.8005 73.0699 55.7681 67.1988C61.7436 73.0718 70.094 76.697 78.9857 76.697C85.3715 76.697 91.3342 74.892 96.3882 71.7664Z" stroke="white"/>
<path d="M78.9847 11.8379C96.6869 11.8379 111.034 26.135 111.034 43.7676C111.034 52.4616 107.546 60.3429 101.887 66.1016L56.5684 20.9491C62.3482 15.3127 70.2583 11.8379 78.9847 11.8379Z" stroke="white"/>
<path d="M0.5 43.7676C0.5 26.135 14.8472 11.8379 32.5494 11.8379C41.2757 11.8379 49.1859 15.3127 54.9657 20.9491L9.64665 66.1016C3.98794 60.3429 0.5 52.4616 0.5 43.7676Z" stroke="white"/>
<path d="M155.751 19.8984L155.751 19.6965C155.859 9.07839 164.534 0.5 175.222 0.5C185.979 0.500001 194.695 9.18738 194.695 19.8984L194.695 34.8396L170.749 34.8396C162.464 34.8396 155.751 28.1483 155.751 19.8984Z" stroke="white"/>
<path d="M155.752 90.5798L155.752 75.6387L179.698 75.6387C187.983 75.6387 194.696 82.3299 194.696 90.5798C194.696 101.291 185.98 109.978 175.223 109.978C164.535 109.978 155.86 101.401 155.752 90.7818L155.752 90.5798Z" stroke="white"/>
<path d="M120.28 55.2393C120.28 44.5272 128.996 35.8408 139.753 35.8408L154.75 35.8408L154.75 59.6976C154.75 67.9475 148.036 74.6387 139.752 74.6387C128.996 74.6387 120.28 65.9514 120.28 55.2393Z" stroke="white"/>
<path d="M210.692 35.8408C221.448 35.8408 230.165 44.5272 230.165 55.2393L230.165 55.2403C230.165 65.9513 221.448 74.6387 210.692 74.6387L195.694 74.6387L195.694 50.7819C195.694 42.5321 202.408 35.8408 210.692 35.8408Z" stroke="white"/>
<path d="M194.692 74.6387L155.751 74.6387L155.751 35.8439C177.14 36.1086 194.426 53.3328 194.692 74.6387Z" stroke="white"/>
</svg>
