<svg width="47" height="29" viewBox="0 0 47 29" fill="none" xmlns="http://www.w3.org/2000/svg">
<path d="M46.3874 6.99075C46.3874 4.32617 45.4101 3.79932 42.9828 5.12858C40.5172 6.47903 38.0484 7.8204 35.3336 9.30106C35.3336 8.52591 35.3432 8.03841 35.3336 7.55395C35.2506 3.32696 32.0345 0.111299 27.6111 0.0567963C21.1213 -0.0219298 14.6315 -0.0158739 8.1417 0.0567963C3.74705 0.105243 0.457441 3.1907 0.38079 7.33593C0.291364 12.1261 0.291364 16.9224 0.38079 21.7125C0.454248 25.7669 3.75982 28.9008 8.02673 28.9463C14.6219 29.0159 21.2203 29.022 27.8155 28.9402C31.8684 28.8918 35.1324 25.7185 35.3273 21.8639C35.3592 21.2614 35.3305 20.6558 35.3305 19.6959C38.0292 21.1675 40.4565 22.4877 42.8806 23.8139C45.4196 25.2037 46.3842 24.7011 46.3874 21.9699C46.3937 16.9769 46.3937 11.9808 46.3874 6.98772V6.99075ZM24.0628 15.2388C21.2203 16.8133 18.3714 18.3758 15.5162 19.9261C14.5772 20.4347 14.1205 20.1017 14.1173 19.1146C14.1173 17.5522 14.1173 15.9898 14.1173 14.4273C14.1205 12.9164 14.1173 11.4055 14.1205 9.8915C14.1205 8.90137 14.5836 8.57436 15.5194 9.08305C18.3746 10.6303 21.2267 12.1927 24.066 13.7673C24.9059 14.2336 24.8931 14.7786 24.0596 15.2388H24.0628Z" fill="#0FA49E"/>
</svg>
